<svg width="60" height="60" viewBox="0 0 60 60" fill="none" xmlns="http://www.w3.org/2000/svg">
<path d="M60 30C60 13.4298 46.5703 0 30 0C13.4298 0 0 13.4298 0 30C0 44.9766 10.9688 57.3867 25.3125 59.6367V38.6719H17.6953V30H25.3125V23.3906C25.3125 15.873 29.7891 11.7188 36.6445 11.7188C39.9258 11.7188 43.3594 12.3047 43.3594 12.3047V19.6875H39.5742C35.8476 19.6875 34.6875 22.002 34.6875 24.375V30H43.0078L41.6777 38.6719H34.6875V59.6367C49.0312 57.3867 60 44.9766 60 30Z" fill="#40F500"/>
<path d="M41.6778 38.6719L43.0078 30H34.6876V24.375C34.6876 22.002 35.8477 19.6875 39.5743 19.6875H43.3594V12.3047C43.3594 12.3047 39.9258 11.7188 36.6446 11.7188C29.7892 11.7188 25.3126 15.873 25.3126 23.3906V30H17.6953V38.6719H25.3126V59.6367C26.8418 59.877 28.4063 60 30.0001 60C31.5938 60 33.1583 59.877 34.6876 59.6367V38.6719H41.6778Z" fill="#121212"/>
</svg>
