<svg width="441" height="152" viewBox="0 0 441 152" fill="none" xmlns="http://www.w3.org/2000/svg">
<path d="M1 150.5C90 128.667 302.4 87.0004 440 95.0004" stroke="black" stroke-width="2"/>
<path d="M1 57.5062C90 35.6729 302.4 -5.99378 440 2.00622" stroke="black" stroke-width="2"/>
<path d="M52.1444 109.696C50.3272 110.123 48.5353 110.133 46.7688 109.726C45.0221 109.288 43.4092 108.543 41.93 107.494C40.4446 106.418 39.1823 105.126 38.143 103.617C37.0975 102.082 36.3644 100.419 35.9436 98.6281C35.5045 96.759 35.4143 94.9175 35.6729 93.1036C35.9255 91.2637 36.4704 89.5606 37.3077 87.9942C38.171 86.4218 39.296 85.0892 40.6828 83.9964C42.0895 82.8715 43.7144 82.0926 45.5576 81.6595C48.2314 81.0314 50.5692 81.0711 52.5707 81.7787C54.5723 82.4864 56.2248 83.6321 57.5283 85.216L55.2805 87.7164C54.0976 86.2959 52.7138 85.361 51.129 84.9115C49.5442 84.462 47.9081 84.4355 46.2207 84.832C44.8189 85.1613 43.617 85.7587 42.615 86.6241C41.6131 87.4895 40.8187 88.539 40.2319 89.7726C39.665 90.9741 39.3134 92.2757 39.177 93.6773C39.0666 95.0729 39.1761 96.4716 39.5054 97.8735C39.9689 99.8464 40.8112 101.566 42.0323 103.032C43.2732 104.466 44.7364 105.506 46.4219 106.151C48.1074 106.796 49.8587 106.905 51.6759 106.478C53.1556 106.13 54.4881 105.448 55.6734 104.429C56.8785 103.379 57.9173 101.971 58.7897 100.205L57.8932 96.3887L51.9354 97.7884L51.3133 95.1405L60.2305 93.0455L63.469 106.83L60.5096 107.525L59.6314 103.787C57.8591 106.97 55.3634 108.94 52.1444 109.696Z" fill="#121212"/>
<path d="M76.5574 85.6999C74.8451 86.1076 73.4205 86.8884 72.2837 88.0424C71.1671 89.1645 70.5003 90.5282 70.2832 92.1335L73.076 104.707L69.6398 105.47L65.1122 85.0871L68.3142 84.3759L69.3637 89.1007C69.7543 87.5389 70.4269 86.2012 71.3815 85.0877C72.3564 83.9424 73.47 83.176 74.7225 82.7886C74.9828 82.7307 75.2041 82.6816 75.3863 82.6411C75.5685 82.6006 75.7276 82.579 75.8636 82.5761L76.5574 85.6999Z" fill="#121212"/>
<path d="M80.0196 96.9675C79.7417 95.6635 79.8677 94.4642 80.3979 93.3696C80.9485 92.2434 81.8202 91.2805 83.0131 90.4809C84.2059 89.6813 85.663 89.0981 87.3843 88.7311C88.2972 88.5366 89.2788 88.4091 90.3293 88.3488C91.3743 88.2623 92.3185 88.2792 93.1621 88.3993L92.8452 86.9127C92.5117 85.3478 91.7809 84.2221 90.653 83.5355C89.5195 82.8228 88.0921 82.65 86.3708 83.0169C85.2493 83.2559 84.2114 83.6953 83.2571 84.335C82.3234 84.943 81.3634 85.7475 80.377 86.7485L78.6081 84.5898C79.7437 83.3934 80.9292 82.4318 82.1648 81.7049C83.3949 80.9519 84.7271 80.4225 86.1616 80.1168C88.7696 79.5608 90.9857 79.8519 92.8097 80.99C94.6281 82.102 95.8126 83.9489 96.3629 86.5309L98.2059 95.1767C98.3783 95.9852 98.8323 96.3246 99.5682 96.1951L100.135 98.8553C99.8073 98.9797 99.5157 99.0828 99.2605 99.1645C99.0313 99.2406 98.8385 99.2953 98.682 99.3287C97.8735 99.501 97.2133 99.41 96.7015 99.0556C96.2158 98.6956 95.894 98.2734 95.7362 97.789L95.3828 96.5146C94.7407 97.8512 93.7691 98.9854 92.4681 99.9171C91.1671 100.849 89.8124 101.465 88.404 101.765C87.0479 102.054 85.7767 102.039 84.5907 101.719C83.399 101.373 82.4032 100.795 81.6032 99.9836C80.7977 99.1465 80.2698 98.1411 80.0196 96.9675ZM93.6294 95.5797C93.8645 95.1478 94.0344 94.7299 94.1392 94.3258C94.2383 93.8957 94.2601 93.5502 94.2045 93.2894L93.6625 90.7466C91.8543 90.4503 90.0635 90.4913 88.29 90.8693C86.5426 91.2418 85.1963 91.8969 84.251 92.8345C83.3262 93.7406 82.9917 94.7935 83.2474 95.9932C83.3864 96.6452 83.6922 97.248 84.1646 97.8017C84.6576 98.3237 85.2849 98.7081 86.0464 98.9547C86.8339 99.1958 87.7363 99.208 88.7534 98.9912C89.8228 98.7632 90.7954 98.3378 91.6715 97.7148C92.5419 97.0657 93.1946 96.354 93.6294 95.5797Z" fill="#121212"/>
<path d="M112.627 96.7037C110.929 97.0495 109.279 97.0996 107.678 96.8541C106.071 96.5824 104.618 95.9938 103.318 95.0883L104.156 92.3868C105.555 93.2449 106.89 93.7895 108.162 94.0205C109.434 94.2514 110.684 94.2419 111.912 93.9919C113.323 93.7046 114.419 93.2093 115.201 92.5058C115.978 91.7762 116.26 90.8888 116.047 89.8435C115.893 89.0858 115.544 88.5718 114.999 88.3017C114.48 88.0263 113.779 87.8562 112.895 87.7912C112.005 87.7001 110.954 87.6148 109.74 87.5353C107.501 87.3652 105.737 86.9895 104.449 86.4082C103.181 85.7954 102.385 84.692 102.061 83.0981C101.667 81.1644 102.095 79.526 103.346 78.1829C104.617 76.8083 106.403 75.887 108.702 75.4188C111.786 74.7911 114.405 75.2241 116.559 76.7176L115.478 79.4277C113.549 78.106 111.409 77.6845 109.057 78.1633C108.351 78.3069 107.677 78.5393 107.035 78.8605C106.388 79.1556 105.887 79.5705 105.533 80.1052C105.174 80.6137 105.075 81.2599 105.234 82.0438C105.431 83.0107 105.964 83.6233 106.833 83.8818C107.702 84.1403 108.939 84.3374 110.545 84.4731C112.178 84.6035 113.601 84.7764 114.815 84.9919C116.055 85.2021 117.06 85.5961 117.831 86.1739C118.602 86.7518 119.115 87.6679 119.37 88.9221C119.764 90.8558 119.341 92.5203 118.101 93.9157C116.856 95.285 115.031 96.2143 112.627 96.7037Z" fill="#121212"/>
<path d="M132.098 92.8216C130.397 93.1537 128.747 93.1905 127.148 92.9321C125.544 92.6475 124.095 92.0473 122.802 91.1313L123.662 88.4367C125.054 89.306 126.385 89.8613 127.655 90.1025C128.925 90.3437 130.175 90.3443 131.405 90.1041C132.818 89.8282 133.919 89.3417 134.707 88.6446C135.489 87.9212 135.778 87.0361 135.574 85.9892C135.426 85.2302 135.08 84.7135 134.538 84.439C134.021 84.1594 133.321 83.9836 132.438 83.9116C131.549 83.8133 130.498 83.7196 129.285 83.6303C127.048 83.4422 125.287 83.0522 124.003 82.4606C122.741 81.8376 121.954 80.7279 121.642 79.1314C121.264 77.1946 121.705 75.5597 122.967 74.2267C124.249 72.8624 126.042 71.9554 128.345 71.5058C131.433 70.903 134.049 71.357 136.191 72.8678L135.089 75.5692C133.17 74.2319 131.033 73.7932 128.678 74.253C127.971 74.391 127.295 74.618 126.651 74.934C126.001 75.2239 125.497 75.6347 125.139 76.1665C124.775 76.6721 124.67 77.3175 124.824 78.1027C125.013 79.0711 125.541 79.688 126.408 79.9535C127.275 80.219 128.511 80.4261 130.115 80.5747C131.746 80.7182 133.168 80.9026 134.38 81.1278C135.619 81.3479 136.621 81.75 137.387 82.3341C138.153 82.9181 138.659 83.8383 138.904 85.0946C139.282 87.0314 138.846 88.6924 137.595 90.0778C136.338 91.437 134.506 92.3516 132.098 92.8216Z" fill="#121212"/>
<path d="M148.137 64.103L147.336 59.7767L150.797 59.1352L151.598 63.4615L148.137 64.103ZM152.657 88.4877L148.852 67.9574L152.313 67.3159L156.118 87.8463L152.657 88.4877Z" fill="#121212"/>
<path d="M181.062 83.343L177.596 83.9607L175.547 72.4619C175.158 70.2829 174.534 68.7554 173.674 67.8795C172.835 66.9726 171.733 66.6408 170.368 66.8841C169.423 67.0525 168.52 67.4573 167.659 68.0983C166.824 68.7346 166.112 69.5252 165.522 70.47C164.953 71.384 164.605 72.3941 164.477 73.5003L166.688 85.9048L163.223 86.5225L159.559 65.9664L162.709 65.4049L163.496 69.8154C164.052 68.2265 165.014 66.8631 166.383 65.7254C167.777 64.583 169.38 63.8503 171.192 63.5275C172.793 63.242 174.095 63.4028 175.097 64.0097C176.12 64.5857 176.933 65.4973 177.534 66.7444C178.131 67.9653 178.577 69.4027 178.872 71.0567L181.062 83.343Z" fill="#121212"/>
<path d="M212.817 52.4776L203.147 54.0647L207.228 78.932L203.675 79.515L199.594 54.6477L189.924 56.2348L189.405 53.077L212.299 49.3198L212.817 52.4776Z" fill="#121212"/>
<path d="M238.259 74.0573L234.78 74.5911L233.008 63.0463C232.685 60.9376 232.06 59.4148 231.134 58.4777C230.234 57.5366 229.086 57.1733 227.689 57.3876C226.792 57.5251 225.919 57.9019 225.07 58.5179C224.246 59.1299 223.555 59.897 222.995 60.8192C222.431 61.7151 222.071 62.7145 221.917 63.8174L223.828 76.2716L220.349 76.8055L215.92 47.9433L219.399 47.4094L221.341 60.0613C221.931 58.4599 222.86 57.1303 224.128 56.0724C225.418 54.9842 226.88 54.3147 228.514 54.064C230.148 53.8132 231.498 53.9972 232.565 54.616C233.631 55.2348 234.463 56.1728 235.06 57.4301C235.68 58.6569 236.115 60.0874 236.366 61.7217L238.259 74.0573Z" fill="#121212"/>
<path d="M252.23 72.4356C250.17 72.7291 248.279 72.5003 246.556 71.7492C244.833 70.9982 243.406 69.8682 242.275 68.3593C241.144 66.8504 240.441 65.1324 240.167 63.2052C239.888 61.2516 240.083 59.4056 240.751 57.6673C241.419 55.929 242.476 54.4586 243.921 53.2561C245.392 52.0498 247.157 51.2999 249.216 51.0064C251.302 50.7092 253.182 50.9531 254.856 51.7381C256.553 52.4929 257.938 53.6153 259.012 55.1053C260.109 56.5652 260.789 58.2191 261.053 60.0671C261.136 60.6479 261.173 61.1005 261.166 61.4248L244.019 63.8684C244.316 65.1997 244.857 66.3482 245.641 67.3139C246.448 68.2495 247.409 68.9475 248.525 69.408C249.638 69.842 250.788 69.9744 251.976 69.8051C253.243 69.6245 254.386 69.1384 255.404 68.3468C256.449 67.5514 257.11 66.6088 257.385 65.5191L260.513 65.9218C260.072 67.547 259.102 68.9647 257.604 70.1747C256.107 71.3848 254.315 72.1384 252.23 72.4356ZM243.556 61.4697L257.653 59.4607C257.356 58.1293 256.804 56.9959 255.997 56.0603C255.19 55.1248 254.231 54.44 253.118 54.0059C252.006 53.5718 250.829 53.4432 249.589 53.62C248.374 53.7931 247.294 54.2434 246.347 54.9709C245.4 55.6984 244.67 56.624 244.157 57.7477C243.67 58.8676 243.469 60.1082 243.556 61.4697Z" fill="#121212"/>
<path d="M277.368 68.5691L273.863 40.3862L285.93 38.8853C287.174 38.7306 288.344 38.8537 289.442 39.2546C290.537 39.629 291.522 40.2052 292.398 40.983C293.271 41.7343 293.987 42.6262 294.545 43.6585C295.1 44.6643 295.447 45.723 295.585 46.8344C295.746 48.1311 295.648 49.3929 295.29 50.6198C294.958 51.8434 294.394 52.9213 293.596 53.8536C292.825 54.7825 291.864 55.4798 290.712 55.9455L298.882 65.8931L294.834 66.3967L287.144 57.0745L279.682 58.0027L280.941 68.1247L277.368 68.5691ZM279.287 54.8272L287.821 53.7657C288.8 53.6439 289.614 53.274 290.263 52.6558C290.935 52.0079 291.413 51.2095 291.698 50.2604C292.01 49.308 292.101 48.3157 291.973 47.2837C291.841 46.2252 291.483 45.2889 290.898 44.4749C290.31 43.6344 289.599 42.9972 288.766 42.5634C287.932 42.1296 287.053 41.9703 286.126 42.0855L277.83 43.1174L279.287 54.8272Z" fill="#148936"/>
<path d="M311.604 64.8711C309.536 65.0989 307.653 64.81 305.955 64.0045C304.28 63.1695 302.916 61.9918 301.863 60.4713C300.808 58.9242 300.175 57.1965 299.964 55.288C299.751 53.3531 299.993 51.529 300.69 49.8157C301.41 48.0731 302.498 46.6252 303.954 45.4722C305.433 44.2897 307.193 43.5861 309.234 43.3612C311.302 43.1334 313.173 43.437 314.848 44.272C316.546 45.0775 317.923 46.2538 318.979 47.8008C320.058 49.3184 320.705 51.0447 320.918 52.9796C321.128 54.8881 320.873 56.7137 320.153 58.4563C319.456 60.1696 318.382 61.616 316.929 62.7955C315.473 63.9485 313.698 64.6404 311.604 64.8711ZM303.547 54.9336C303.705 56.3649 304.153 57.6301 304.891 58.7293C305.656 59.8255 306.593 60.6612 307.702 61.2365C308.809 61.7852 309.999 61.9895 311.271 61.8494C312.543 61.7092 313.658 61.2376 314.616 60.4345C315.6 59.6286 316.333 58.6089 316.814 57.3754C317.319 56.1125 317.493 54.7654 317.335 53.3341C317.177 51.9028 316.716 50.639 315.951 49.5428C315.213 48.4437 314.276 47.608 313.14 47.0356C312.03 46.4603 310.839 46.2428 309.567 46.3829C308.295 46.5231 307.181 47.008 306.226 47.8375C305.268 48.6406 304.536 49.6603 304.028 50.8966C303.547 52.1301 303.387 53.4757 303.547 54.9336Z" fill="#118633"/>
<path d="M324.4 56.9895C324.274 55.6622 324.537 54.4853 325.189 53.4588C325.865 52.4033 326.842 51.5469 328.119 50.8896C329.396 50.2323 330.91 49.8202 332.662 49.6534C333.591 49.565 334.581 49.5511 335.632 49.6118C336.679 49.646 337.616 49.7712 338.44 49.9873L338.296 48.4742C338.144 46.8814 337.547 45.6792 336.506 44.8676C335.462 44.0294 334.064 43.6938 332.311 43.8606C331.17 43.9693 330.089 44.2865 329.067 44.8124C328.07 45.3091 327.024 45.9981 325.929 46.8791L324.42 44.5316C325.685 43.4736 326.973 42.6545 328.284 42.0743C329.592 41.4675 330.977 41.0947 332.437 40.9556C335.091 40.7029 337.259 41.2465 338.941 42.5866C340.619 43.9 341.584 45.8708 341.834 48.499L342.672 57.2992C342.75 58.1221 343.162 58.5115 343.908 58.4672L344.166 61.175C343.826 61.261 343.524 61.3298 343.261 61.3817C343.025 61.4309 342.827 61.4632 342.668 61.4783C341.845 61.5567 341.2 61.3904 340.732 60.9796C340.291 60.5662 340.02 60.1098 339.918 59.6105L339.714 58.304C338.922 59.558 337.827 60.5731 336.428 61.3492C335.028 62.1253 333.612 62.5816 332.178 62.7181C330.798 62.8495 329.537 62.6883 328.395 62.2345C327.251 61.7541 326.329 61.0651 325.627 60.1675C324.923 59.2435 324.514 58.1841 324.4 56.9895ZM338.079 57.1739C338.362 56.7719 338.579 56.3762 338.73 55.9869C338.878 55.571 338.939 55.2303 338.914 54.9648L338.667 52.3765C336.905 51.8746 335.121 51.7096 333.316 51.8815C331.538 52.0508 330.125 52.5469 329.078 53.3698C328.056 54.1637 327.602 55.1712 327.719 56.3923C327.782 57.056 328.016 57.6899 328.422 58.2942C328.852 58.8694 329.431 59.3232 330.159 59.6557C330.914 59.9857 331.808 60.1014 332.844 60.0028C333.932 59.8992 334.947 59.5882 335.889 59.07C336.828 58.5252 337.558 57.8931 338.079 57.1739Z" fill="#148936"/>
<path d="M347.415 50.4161C347.262 48.4487 347.521 46.6231 348.193 44.9394C348.889 43.227 349.903 41.8242 351.236 40.731C352.595 39.6358 354.192 39.0169 356.027 38.8744C357.702 38.7442 359.238 39.0662 360.635 39.8403C362.033 40.6144 363.152 41.5973 363.994 42.789L363.027 30.3465L366.537 30.0738L368.489 55.1981C368.553 56.0223 368.958 56.4188 369.704 56.3875L369.915 59.0994C369.259 59.2573 368.744 59.3508 368.372 59.3797C367.681 59.4334 367.051 59.2417 366.482 58.8044C365.94 58.3651 365.646 57.853 365.6 57.2681L365.464 55.5134C364.743 56.9067 363.721 58.0426 362.399 58.921C361.076 59.7995 359.67 60.2965 358.181 60.4122C356.267 60.5609 354.514 60.2023 352.922 59.3363C351.355 58.4417 350.083 57.2165 349.106 55.6609C348.127 54.0786 347.564 52.3303 347.415 50.4161ZM364.722 52.1608L364.257 46.1788C363.868 45.2996 363.286 44.529 362.513 43.867C361.737 43.1783 360.881 42.6564 359.944 42.3012C359.031 41.9174 358.136 41.7596 357.259 41.8278C355.903 41.9331 354.736 42.3983 353.757 43.2233C352.804 44.0462 352.082 45.0786 351.59 46.3204C351.125 47.5602 350.944 48.8447 351.047 50.174C351.154 51.5565 351.559 52.8089 352.262 53.9312C352.991 55.0515 353.928 55.9282 355.074 56.5613C356.218 57.1679 357.454 57.4195 358.783 57.3162C359.634 57.2501 360.496 56.9826 361.369 56.5136C362.24 56.0179 362.993 55.3844 363.629 54.6128C364.264 53.8413 364.629 53.0239 364.722 52.1608Z" fill="#148936"/>
</svg>
