<svg width="60" height="60" viewBox="0 0 60 60" fill="none" xmlns="http://www.w3.org/2000/svg">
<path d="M0 30C0 13.4315 13.4315 0 30 0C46.5685 0 60 13.4315 60 30C60 46.5685 46.5685 60 30 60C13.4315 60 0 46.5685 0 30Z" fill="#40F500"/>
<path d="M29.9998 22.0266C32.441 22.0266 34.0876 23.0811 35.0266 23.9622L38.6955 20.38C36.4421 18.2855 33.5098 17 29.9998 17C24.9155 17 20.5243 19.9177 18.3866 24.1644L22.5898 27.4289C23.6443 24.2944 26.5621 22.0266 29.9998 22.0266Z" fill="#121212"/>
<path d="M42.48 30.2886C42.48 29.2197 42.3934 28.4397 42.2055 27.6309H30V32.4552H37.1645C37.02 33.6541 36.24 35.4597 34.5066 36.673L38.6089 39.8509C41.0645 37.583 42.48 34.2464 42.48 30.2886Z" fill="#121212"/>
<path d="M22.6044 32.5708C22.3299 31.7619 22.171 30.8952 22.171 29.9997C22.171 29.1041 22.3299 28.2374 22.5899 27.4286L18.3865 24.1641C17.5055 25.9263 16.9999 27.9052 16.9999 29.9997C16.9999 32.0941 17.5055 34.0731 18.3865 35.8352L22.6044 32.5708Z" fill="#121212"/>
<path d="M30 42.9992C33.51 42.9992 36.4566 41.8437 38.6089 39.8503L34.5066 36.6726C33.4089 37.4381 31.9355 37.9726 30 37.9726C26.5622 37.9726 23.6445 35.7047 22.6045 32.5703L18.4011 35.8347C20.5389 40.0814 24.9155 42.9992 30 42.9992Z" fill="#121212"/>
</svg>
