<svg width="60" height="60" viewBox="0 0 60 60" fill="none" xmlns="http://www.w3.org/2000/svg">
<path d="M0 30C0 13.4315 13.4315 0 30 0C46.5685 0 60 13.4315 60 30C60 46.5685 46.5685 60 30 60C13.4315 60 0 46.5685 0 30Z" fill="#70FF00"/>
<path fill-rule="evenodd" clip-rule="evenodd" d="M20 24C20 22.9391 20.4214 21.9217 21.1716 21.1716C21.9217 20.4214 22.9391 20 24 20H36C37.0609 20 38.0783 20.4214 38.8284 21.1716C39.5786 21.9217 40 22.9391 40 24V36C40 37.0609 39.5786 38.0783 38.8284 38.8284C38.0783 39.5786 37.0609 40 36 40H24C22.9391 40 21.9217 39.5786 21.1716 38.8284C20.4214 38.0783 20 37.0609 20 36V24ZM24 22C23.4696 22 22.9609 22.2107 22.5858 22.5858C22.2107 22.9609 22 23.4696 22 24V36C22 36.5304 22.2107 37.0391 22.5858 37.4142C22.9609 37.7893 23.4696 38 24 38H36C36.5304 38 37.0391 37.7893 37.4142 37.4142C37.7893 37.0391 38 36.5304 38 36V24C38 23.4696 37.7893 22.9609 37.4142 22.5858C37.0391 22.2107 36.5304 22 36 22H24ZM30 27C29.2044 27 28.4413 27.3161 27.8787 27.8787C27.3161 28.4413 27 29.2044 27 30C27 30.7956 27.3161 31.5587 27.8787 32.1213C28.4413 32.6839 29.2044 33 30 33C30.7956 33 31.5587 32.6839 32.1213 32.1213C32.6839 31.5587 33 30.7956 33 30C33 29.2044 32.6839 28.4413 32.1213 27.8787C31.5587 27.3161 30.7956 27 30 27ZM25 30C25 28.6739 25.5268 27.4021 26.4645 26.4645C27.4021 25.5268 28.6739 25 30 25C31.3261 25 32.5979 25.5268 33.5355 26.4645C34.4732 27.4021 35 28.6739 35 30C35 31.3261 34.4732 32.5979 33.5355 33.5355C32.5979 34.4732 31.3261 35 30 35C28.6739 35 27.4021 34.4732 26.4645 33.5355C25.5268 32.5979 25 31.3261 25 30V30ZM35.5 26C35.8978 26 36.2794 25.842 36.5607 25.5607C36.842 25.2794 37 24.8978 37 24.5C37 24.1022 36.842 23.7206 36.5607 23.4393C36.2794 23.158 35.8978 23 35.5 23C35.1022 23 34.7206 23.158 34.4393 23.4393C34.158 23.7206 34 24.1022 34 24.5C34 24.8978 34.158 25.2794 34.4393 25.5607C34.7206 25.842 35.1022 26 35.5 26Z" fill="#121212"/>
</svg>
