<svg width="60" height="60" viewBox="0 0 60 60" fill="none" xmlns="http://www.w3.org/2000/svg">
<path d="M0 30C0 13.4315 13.4315 0 30 0C46.5685 0 60 13.4315 60 30C60 46.5685 46.5685 60 30 60C13.4315 60 0 46.5685 0 30Z" fill="#40F500"/>
<path d="M29.1015 24.3844L29.1645 25.4225L28.1153 25.2954C24.2961 24.8081 20.9596 23.1556 18.1266 20.3804L16.7418 19.0034L16.385 20.0202C15.6295 22.2871 16.1121 24.681 17.686 26.291C18.5254 27.1809 18.3365 27.308 16.8886 26.7784C16.385 26.6089 15.9443 26.4817 15.9024 26.5452C15.7555 26.6936 16.2591 28.6214 16.6577 29.3841C17.2034 30.4434 18.3155 31.4814 19.5326 32.0957L20.5609 32.583L19.3438 32.6042C18.1686 32.6042 18.1266 32.6254 18.2526 33.0702C18.6723 34.4472 20.33 35.9091 22.1766 36.5446L23.4778 36.9895L22.3445 37.6674C20.6658 38.642 18.6933 39.1927 16.7208 39.2351C15.7764 39.2564 15 39.341 15 39.4046C15 39.6165 17.5601 40.8029 19.05 41.2689C23.5196 42.6459 28.8288 42.0527 32.8158 39.7012C35.6486 38.0276 38.4815 34.7015 39.8035 31.4814C40.517 29.7654 41.2305 26.63 41.2305 25.1259C41.2305 24.1514 41.2934 24.0242 42.4685 22.8591C43.161 22.1811 43.8115 21.4396 43.9375 21.2279C44.1473 20.8254 44.1264 20.8254 43.0561 21.1855C41.2725 21.821 41.0206 21.7362 41.902 20.783C42.5525 20.105 43.3289 18.8762 43.3289 18.5161C43.3289 18.4526 43.0141 18.5585 42.6574 18.7491C42.2798 18.961 41.4404 19.2787 40.8108 19.4695L39.6776 19.8296L38.6494 19.1305C38.0829 18.7491 37.2854 18.3255 36.8658 18.1984C35.7955 17.9017 34.1588 17.9441 33.1935 18.2831C30.5704 19.2365 28.9126 21.6939 29.1015 24.3844Z" fill="#121212"/>
</svg>
